<?xml version="1.0" encoding="UTF-8"?>
<svg width="305px" height="56px" viewBox="0 0 305 56" version="1.1" xmlns="http://www.w3.org/2000/svg" xmlns:xlink="http://www.w3.org/1999/xlink">
    <!-- Generator: sketchtool 60.1 (101010) - https://sketch.com -->
    <title>9CE47DBD-6D4C-4D5E-8E94-09780521A0BE</title>
    <desc>Created with sketchtool.</desc>
    <g id="Page-1" stroke="none" stroke-width="1" fill="none" fill-rule="evenodd">
        <g id="Home" transform="translate(-107.000000, -35.000000)" fill-rule="nonzero">
            <g id="Group-3">
                <g id="logo-copy" transform="translate(107.000000, 34.250000)">
                    <g id="Group" transform="translate(81.000000, 11.750000)" fill="#FFFFFF">
                        <path d="M13.843514,23.6470588 C13.0668411,24.0406863 11.2868785,24.677451 8.40575701,24.677451 C3.35685981,24.677451 0.282093458,21.2519608 0.282093458,16.4318627 C0.282093458,11.0661765 3.51857944,7.54901961 8.04986916,7.54901961 C13.6168972,7.54901961 14.7824299,12.4602941 14.8143551,15.0068627 C14.8143551,15.4617647 14.7819065,15.7343137 14.7494579,16.0985294 L2.25570093,16.0985294 C2.25570093,21.1916667 5.2331215,23.1617647 8.66429907,23.1617647 C11.059215,23.1617647 12.3540187,22.7068627 13.3573084,22.252451 L13.843514,23.6470588 Z M12.7758505,14.6431373 C12.8082991,12.3088235 11.7725607,9.06519608 7.8562243,9.06519608 C4.23140187,9.06519608 2.64508411,12.1877451 2.35409346,14.6431373 L12.7758505,14.6431373 Z" id="Shape"></path>
                        <polygon id="Path" points="16.044785 14.2490196 24.7514766 14.2490196 24.7514766 15.8254902 16.044785 15.8254902"></polygon>
                        <path d="M36.1770467,12.0362745 C38.3458692,12.4906863 41.3557383,14.2191176 41.3557383,17.8872549 C41.3557383,19.0088235 41.0966729,20.8279412 39.5108785,22.3132353 C37.8926355,23.8897059 35.2705794,24.5264706 31.7431028,24.5264706 C29.8333458,24.5264706 28.3768224,24.375 27.4379065,24.3137255 L27.4379065,1.66813725 C28.7651589,1.36519608 30.5451215,1.15294118 32.4224299,1.15294118 C38.3777944,1.15294118 40.449271,3.75980392 40.449271,6.85196078 C40.449271,9.15588235 38.6693084,11.1568627 36.1770467,11.945098 L36.1770467,12.0362745 L36.1770467,12.0362745 Z M32.7458692,11.3691176 C36.208972,11.3691176 38.410243,9.45931373 38.410243,6.94313725 C38.410243,3.82058824 35.9179813,2.69901961 32.3899813,2.69901961 C30.8361121,2.69901961 29.9301682,2.79019608 29.4120374,2.94166667 L29.4120374,11.3691176 L32.7458692,11.3691176 Z M29.4120374,22.7980392 C30.0918879,22.95 31.062729,22.979902 32.2601869,22.979902 C35.9499065,22.979902 39.2837383,21.7063725 39.2837383,17.9171569 C39.2837383,14.2490196 35.8850093,12.8544118 32.3245607,12.8544118 L29.411514,12.8544118 L29.411514,22.7980392 L29.4120374,22.7980392 Z" id="Shape"></path>
                        <path d="M59.2218318,15.9769608 C59.2218318,22.1009804 54.8522617,24.7078431 51.0008224,24.7078431 C46.5019813,24.7078431 43.0388785,21.4941176 43.0388785,16.279902 C43.0388785,10.6411765 46.8903178,7.54901961 51.2274393,7.54901961 C56.0497196,7.54901961 59.2218318,11.0053922 59.2218318,15.9769608 Z M51.1625421,9.06519608 C46.922243,9.06519608 45.0779065,12.7637255 45.0779065,16.1892157 C45.0779065,20.1 47.6350654,23.1926471 51.0657196,23.1926471 C54.561271,23.1926471 57.1828037,20.1 57.1828037,16.0681373 C57.1828037,13.0666667 55.467215,9.06519608 51.1625421,9.06519608 Z" id="Shape"></path>
                        <path d="M74.4014953,23.6470588 C73.6248224,24.0406863 71.8448598,24.677451 68.9637383,24.677451 C63.9148411,24.677451 60.8400748,21.2519608 60.8400748,16.4318627 C60.8400748,11.0661765 64.0765607,7.54901961 68.6078505,7.54901961 C74.1748785,7.54901961 75.3404112,12.4602941 75.3723364,15.0068627 C75.3723364,15.4617647 75.3398879,15.7343137 75.3079626,16.0985294 L62.8142056,16.0985294 C62.8142056,21.1916667 65.7916262,23.1617647 69.2228037,23.1617647 C71.6177196,23.1617647 72.9125234,22.7068627 73.9158131,22.252451 L74.4014953,23.6470588 Z M73.3333084,14.6431373 C73.3662804,12.3088235 72.3300187,9.06519608 68.4136822,9.06519608 C64.7888598,9.06519608 63.2025421,12.1877451 62.9115514,14.6431373 L73.3333084,14.6431373 Z" id="Shape"></path>
                        <path d="M91.2323738,24.3441176 L88.8050093,24.3441176 L82.04,15.8862745 L80.3249346,17.6142157 L80.3249346,24.3441176 L78.3178318,24.3441176 L78.3178318,0.122058824 L80.3249346,0.122058824 L80.3249346,15.7647059 L80.3893084,15.7647059 C80.8106168,15.2495098 81.4899439,14.4916667 82.0075514,13.9460784 L87.8660935,7.91323529 L90.2934579,7.91323529 L83.4321495,14.7343137 L91.2323738,24.3441176 Z" id="Path"></path>
                        <path d="M106.315215,24.3441176 L104.308636,24.3441176 L104.308636,14.5828431 C104.308636,11.7333333 103.176075,9.15637255 99.7773458,9.15637255 C97.4468037,9.15637255 95.4402243,10.7632353 94.7603738,12.7034314 C94.5662056,13.1882353 94.533757,13.6127451 94.533757,14.2495098 L94.533757,24.3446078 L92.5271776,24.3446078 L92.5271776,0.122058824 L94.533757,0.122058824 L94.533757,10.7019608 L94.5986542,10.7019608 C95.568972,8.94362745 97.8675888,7.54901961 100.327402,7.54901961 C102.139813,7.54901961 106.314692,8.45833333 106.314692,14.370098 L106.314692,24.3441176 L106.315215,24.3441176 Z" id="Path"></path>
                        <path d="M125.314393,15.9769608 C125.314393,22.1009804 120.944822,24.7078431 117.09286,24.7078431 C112.594019,24.7078431 109.130916,21.4941176 109.130916,16.279902 C109.130916,10.6411765 112.982355,7.54901961 117.319477,7.54901961 C122.142804,7.54901961 125.314393,11.0053922 125.314393,15.9769608 Z M117.255103,9.06519608 C113.014804,9.06519608 111.169944,12.7637255 111.169944,16.1892157 C111.169944,20.1 113.727103,23.1926471 117.157757,23.1926471 C120.653832,23.1926471 123.274841,20.1 123.274841,16.0681373 C123.275364,13.0666667 121.560299,9.06519608 117.255103,9.06519608 Z" id="Shape"></path>
                        <path d="M141.691514,20.2215686 C141.691514,21.7671569 141.756411,23.1014706 141.853757,24.3441176 L140.008897,24.3441176 L139.879626,21.5553922 L139.78228,21.5553922 C138.94071,22.979902 137.063402,24.7083333 133.988636,24.7083333 C131.625645,24.7083333 128.162542,23.5563725 128.162542,17.5843137 L128.162542,7.94362745 L130.169645,7.94362745 L130.169645,17.1897059 C130.169645,20.6460784 131.27028,23.1019608 134.539215,23.1019608 C136.837308,23.1019608 139.685458,21.3431373 139.685458,18.1602941 L139.685458,7.91323529 L141.692037,7.91323529 L141.692037,20.2215686 L141.691514,20.2215686 Z" id="Path"></path>
                        <path d="M159.979439,20.4637255 C159.979439,21.7063725 160.043813,23.222549 160.141159,24.3441176 L158.328748,24.3441176 L158.199477,21.3426471 L158.102131,21.3426471 C157.228112,23.1313725 155.189084,24.7078431 152.081869,24.7078431 C147.874019,24.7078431 144.701907,21.4034314 144.701907,16.4014706 C144.701907,10.9142157 148.229907,7.54901961 152.437234,7.54901961 C155.253458,7.54901961 157.097794,8.91323529 157.907439,10.3382353 L157.971813,10.3382353 L157.971813,0.151960784 L159.978916,0.151960784 L159.978916,20.4637255 L159.979439,20.4637255 Z M157.972336,14.4612745 C157.972336,11.0960784 155.383252,9.09558824 152.631925,9.09558824 C149.006579,9.09558824 146.740935,12.1877451 146.740935,16.2803922 C146.740935,19.8882353 148.618243,23.1622549 152.534579,23.1622549 C156.159925,23.1622549 157.972336,20.0093137 157.972336,17.7357843 L157.972336,14.4612745 Z" id="Shape"></path>
                        <path d="M176.486355,23.6470588 C175.709682,24.0406863 173.929196,24.677451 171.048598,24.677451 C165.999701,24.677451 162.924935,21.2519608 162.924935,16.4318627 C162.924935,11.0661765 166.161944,7.54901961 170.693234,7.54901961 C176.260262,7.54901961 177.425271,12.4602941 177.45772,15.0068627 C177.45772,15.4617647 177.425271,15.7343137 177.392822,16.0985294 L164.899589,16.0985294 C164.899589,21.1916667 167.877009,23.1617647 171.308187,23.1617647 C173.703103,23.1617647 174.997907,22.7068627 176.001196,22.252451 L176.486355,23.6470588 Z M175.418168,14.6431373 C175.45114,12.3088235 174.414879,9.06519608 170.499065,9.06519608 C166.87372,9.06519608 165.287925,12.1877451 164.996411,14.6431373 L175.418168,14.6431373 Z" id="Shape"></path>
                        <path d="M194.190729,24.3441176 L192.18415,24.3441176 L192.18415,14.6431373 C192.18415,11.7328431 191.051065,9.12598039 187.587963,9.12598039 C184.642991,9.12598039 182.409271,11.5813725 182.409271,14.1887255 L182.409271,24.3446078 L180.402692,24.3446078 L180.402692,11.945098 C180.402692,10.3686275 180.337794,9.21666667 180.272897,7.94313725 L182.085832,7.94313725 L182.247551,10.7926471 L182.312449,10.7926471 C183.250841,9.03431373 185.354766,7.54852941 188.170467,7.54852941 C189.983402,7.54852941 194.190729,8.48823529 194.190729,14.4 L194.190729,24.3441176 L194.190729,24.3441176 Z" id="Path"></path>
                        <path d="M197.492112,23.1014706 C197.492112,22.1313725 198.171963,21.4338235 199.110355,21.4338235 C200.049271,21.4338235 200.69615,22.1313725 200.69615,23.1014706 C200.69615,23.9803922 200.049271,24.7078431 199.077907,24.7078431 C198.074617,24.7078431 197.492112,23.920098 197.492112,23.1014706 Z" id="Path"></path>
                        <path d="M217.299888,24.3441176 L215.293308,24.3441176 L215.293308,14.6431373 C215.293308,11.7328431 214.160748,9.12598039 210.697121,9.12598039 C207.75215,9.12598039 205.51843,11.5813725 205.51843,14.1887255 L205.51843,24.3446078 L203.51185,24.3446078 L203.51185,11.945098 C203.51185,10.3686275 203.446953,9.21666667 203.382056,7.94313725 L205.194991,7.94313725 L205.35671,10.7926471 L205.421607,10.7926471 C206.36,9.03431373 208.463925,7.54852941 211.279626,7.54852941 C213.092561,7.54852941 217.299888,8.48823529 217.299888,14.4 L217.299888,24.3441176 L217.299888,24.3441176 Z" id="Path"></path>
                        <polygon id="Path" points="223.481869 24.3441176 221.47529 24.3441176 221.47529 0.122058824 223.481869 0.122058824"></polygon>
                    </g>
                    <g id="Group" transform="translate(0.000000, 5.750000)">
                        <ellipse id="Oval" fill="#5E6C94" cx="22.720885" cy="21.8403721" rx="22.6152212" ry="21.7912558"></ellipse>
                        <ellipse id="Oval" fill="#FFFFFF" cx="37.1522124" cy="22.1632093" rx="22.6152212" ry="21.7912558"></ellipse>
                        <path d="M48.8357522,23.1066512 C48.8092035,20.3013953 48.0254867,17.9622326 46.4830088,16.0876279 C44.3150442,13.4343256 41.4143363,12.1061395 37.7819469,12.1061395 C34.2530973,12.1061395 31.4373451,13.402093 29.3352212,15.9934884 C28.1426549,17.4567442 27.380708,19.0693953 27.0451327,20.8253023 L22.980531,20.8253023 L20.7732743,20.8253023 L20.7674336,20.8253023 C20.679292,21.5037209 20.6341593,22.1959535 20.6341593,22.8999535 C20.6341593,22.9690233 20.6368142,23.0375814 20.6368142,23.1066512 L20.64,23.1066512 L22.980531,23.1066512 L26.8492035,23.1066512 C26.8847788,25.8131628 27.8623009,28.2459535 29.7849558,30.399907 C31.7447788,32.5947907 34.4633628,33.6927442 37.939115,33.6927442 C39.5060177,33.6927442 40.9109735,33.4625116 42.1518584,33.0030698 C43.3943363,32.5446512 44.5115044,31.8749302 45.5038938,30.9933953 C46.4973451,30.1128837 47.3729204,28.9555814 48.1306195,27.5214884 L45.0350442,27.5214884 C44.4918584,28.2725581 43.9752212,28.855814 43.4867257,29.2656279 C42.7672566,29.8683256 41.8964602,30.3497674 40.8690265,30.712 C39.8426549,31.0752558 38.7881416,31.2573953 37.7028319,31.2573953 C35.4552212,31.2573953 33.5660177,30.4971163 32.0368142,28.9693953 C30.5070796,27.4452558 29.7169912,25.4908372 29.6644248,23.1061395 L39.5506195,23.1061395 L48.8357522,23.1061395 L48.8357522,23.1066512 Z M32.4292035,16.5772558 C33.9318584,15.2838605 35.7297345,14.6346047 37.8212389,14.6346047 C39.0876106,14.6346047 40.2976991,14.8929767 41.4472566,15.4092093 C42.5978761,15.923907 43.5217699,16.6043721 44.2215929,17.4465116 C44.920885,18.2886512 45.4545133,19.4147442 45.820354,20.8253023 L39.5511504,20.8253023 L29.94,20.8253023 C30.5012389,18.9363721 31.3306195,17.5217209 32.4292035,16.5772558 Z" id="Shape" fill="#333F64"></path>
                    </g>
                    <rect id="Rectangle" fill="#FFFFFF" x="70" y="0.75" width="1" height="56"></rect>
                </g>
            </g>
        </g>
    </g>
</svg>