<?xml version="1.0" encoding="utf-8"?>
<!-- Generator: Adobe Illustrator 22.1.0, SVG Export Plug-In . SVG Version: 6.00 Build 0)  -->
<svg version="1.1" id="Layer_1" xmlns="http://www.w3.org/2000/svg" xmlns:xlink="http://www.w3.org/1999/xlink" x="0px" y="0px"
	 viewBox="0 0 205 96" style="enable-background:new 0 0 205 96;" xml:space="preserve">
<style type="text/css">
	.st0{fill:#FD6A35;stroke:#FC6A36;}
	.st1{fill:url(#gradient);}
	.st2{fill:#FFFFFF;}
</style>
<g id="Atoms">
	<g id="Logo" transform="translate(-187.000000, -185.000000)">
		<g id="default_x2F_logo-l" transform="translate(187.000000, 185.000000)">
			<g id="beeld" transform="translate(113.000000, 0.000000)">
				<g id="vlag">
					<path id="lijn" class="st0" d="M6.1,43.3L6.1,43.3L6.1,43.3c0.3-0.3-0.6,0.7-0.8,1c-0.4,0.5-0.8,1.1-1.1,1.7
						c-2.3,4.1-2.9,9.1-0.5,15.2c1.8,4.7,7.8,9.4,16.8,14.1c6.3,3.3,12.1,5.6,20.9,8.9c12.4,4.6,19.1,5.8,30.2,4.3
						c8-1.1,12.9-3.7,15.9-9.4c3.8-7.4,3.8-19.8-0.7-38.6C82.4,21.7,77,10.6,70.7,5.3c-4.8-4-9.6-4.5-16.2-2.9
						c-9.1,2.3-18,8.4-28.7,18.7c-1.3,1.3-2.8,2.8-4.3,4.4c-1,1.1-2,2.2-3.1,3.3c-2.9,3.2-5.8,6.6-8.6,10c-1,1.2-1.9,2.3-2.7,3.3
						c-0.3,0.3-0.5,0.7-0.7,0.9C6.2,43.1,6.1,43.2,6.1,43.3L6.1,43.3L6.1,43.3z M5.3,42.7c0,0,10.9-13.7,19.8-22.3
						s18.5-16.3,29.1-19s23.9-2.1,33.7,38.7S85,87.6,71.8,89.4s-21.3-0.8-30.7-4.3S7.1,72.5,2.8,61.5S4.2,44.1,5.3,42.7L5.3,42.7
						L5.3,42.7z"/>

						<linearGradient id="gradient" gradientUnits="userSpaceOnUse" x1="-20" y1="1" x2="25" y2="-10">
						<stop  offset="0" style="stop-color:#FFFFFF"/>
						<stop  offset="0" style="stop-color:#FB9068"/>
						<stop  offset="0" style="stop-color:#FB9874"/>
						<stop  offset="0.5854" style="stop-color:#FC7B4C"/>
						<stop  offset="1" style="stop-color:#FC6B36"/>
					</linearGradient>
					<path id="vlak" class="st1" d="M7.2,33.4c0,0,13.9-10.7,24.5-16.9S53.6,5.1,64.5,5.1S88.2,8.9,87.8,51
						c-0.4,42.1-14.3,45.5-27.5,44s-20.4-6-28.7-11.7S1.8,62.9,0.2,51.1S5.8,34.5,7.2,33.4z"/>
				</g>
				<g id="letters" transform="translate(20.899994, 34.000000)">
					<path id="_x34_" class="st2" d="M49.1,30v-6h4v-6h-4V0h-8.2L28.1,18.8V24h15v6H49.1z M43.1,18h-7.8l7.8-12.3V18z"/>
					<path id="_x32_" class="st2" d="M23.1,30v-5.5H11.3c7.7-5.6,11.8-10,11.8-15c0-5.9-5-9.4-11.3-9.4C7.7,0,3.3,1.5,0.4,4.8L4,9
						c2-2.1,4.6-3.4,8-3.4c2.4,0,4.8,1.3,4.8,3.9c0,3.6-3.5,6.7-15.6,15.6V30H23.1z"/>
				</g>
			</g>
			<path id="FIRM" class="st2" d="M6,64V52h14v-6H6v-6h15v-6H0v30H6z M33,64V34h-6v30H33z M63.3,64l-6.7-11.4
				c3.2-0.8,6.6-3.6,6.5-8.9c0.1-5.6-3.7-9.7-10-9.7H39v30h6V54h5.1L56,64H63.3z M45,48v-8h7.1c2.6,0,4.5,1.5,4.5,4s-1.9,4-4.5,4H45
				z M101,64V34h-8.5l-7.3,18.1L78,34h-9v30h6V43l8.8,21h2.8L95,43v21H101z"/>
		</g>
	</g>
</g>
</svg>
